<?xml version="1.0" encoding="UTF-8"?>
<svg version="1.1" viewBox="0 0 48 48" xmlns="http://www.w3.org/2000/svg">
<path d="m39.75 42q-6.1 0-12.125-3t-10.825-7.8q-4.8-4.8-7.8-10.825t-3-12.125q0-0.95 0.65-1.6t1.6-0.65h7q0.7 0 1.225 0.475t0.675 1.275l1.35 6.3q0.1 0.7-0.025 1.275t-0.525 0.975l-5 5.05q2.8 4.65 6.275 8.1t7.875 5.85l4.75-4.9q0.5-0.55 1.15-0.775t1.3-0.075l5.95 1.3q0.75 0.15 1.25 0.75t0.5 1.4v6.75q0 0.95-0.65 1.6t-1.6 0.65zm-28.3-23.4 4.05-4.1-1.15-5.5h-5.35q0 1.95 0.6 4.275t1.85 5.325zm18.45 18.15q2.05 0.95 4.45 1.55t4.65 0.7v-5.35l-5.15-1.05z" fill="#fff"/>
</svg>
